<?xml version="1.0" encoding="utf-8"?>

<!DOCTYPE svg PUBLIC "-//W3C//DTD SVG 1.1//EN" "http://www.w3.org/Graphics/SVG/1.1/DTD/svg11.dtd">
<!-- Uploaded to: SVG Repo, www.svgrepo.com, Generator: SVG Repo Mixer Tools -->
<svg height="800px" width="800px" version="1.1" id="_x32_" xmlns="http://www.w3.org/2000/svg" xmlns:xlink="http://www.w3.org/1999/xlink"
	 viewBox="0 0 512 512"  xml:space="preserve">
<style type="text/css">
	.st0{fill:#000000;}
</style>
<g>
	<path class="st0" d="M297.941,245.788c-46.436-40.72-103.046-61.562-150.03-72.954c-40.218-9.745-90.838-17.308-45.165-90.155
		c-19.47,55.351,3.48,64.587,29.684,71.314c-19.142-20.942-17.87-52.526,11.532-76.394c46.115-37.434,75.203-3.648,81.775,9.19
		c1.834,3.601,4.297,6.312,5.582,9.437c8.018-21.712,15.829-39.569,12.797-48.712c11.385,13.025-4.644,44.522-11.19,66.87
		c-0.314,1.499-0.703,3.012-1.205,4.511c-7.63,31.478-0.174,60.224,4.738,74.159c29.376,15.655,52.126,32.863,64.655,48.538
		c22.676-31.564,22.783-75.504-2.617-107.423c-19.564-24.577-46.095-84.493-45.794-97.879c0.295-13.373-37.675-22.562-51.114-0.917
		c0,0,5.689-28.612-27.736-34.857c-24.255-4.525-83.582,20.547-72.712,80.885c-11.284-1.519-26.357-0.342-36.698,12.784
		c-18.52,23.499,3.902,51.65,7.616,61.83c-16.364,15.213-6.78,38.244-6.78,38.244c51.925-6.291,76.542,29.208,93.809,50.894
		c30.641,38.498,86.695,44.864,125.2,14.216C289.428,255.273,293.953,250.694,297.941,245.788z"/>
	<path class="st0" d="M181.831,158.418c72.064-60.103,4.591-98.614-33.826-64.507c-29.831,26.491-6.325,63.999,17.743,69.48
		c19.564,6.292,38.043,13.634,54.829,21.619c-5.334-16.946-3.574-40.841,0.194-58.136
		C219.372,127.81,197.078,161.062,181.831,158.418z M170.527,129.089c-6.894,5.488-13.915,11.405-17.274,7.189
		c-5.81-5.234-0.362-18.466,6.579-24.403c18.399-15.748,39.067-9.745,36.792,2.082c-1.747,10.876-10.963,21.746-13.265,20.246
		C182.233,133.459,181.925,120.02,170.527,129.089z"/>
	<path class="st0" d="M447.129,337.148c-7.884,6.867-15.273,10.24-15.273,10.24s-11.352-1.379-21.164,11.72
		c-9.798,13.098-6.158,39.422-8.206,52.56C430.196,413.04,472.174,362.066,447.129,337.148z"/>
	<path class="st0" d="M300.592,351.35c-2.476,5.181,5.368,12.758,5.368,12.758l-24.884-2.129c0,0,12.998,57.178,76.768,29.489
		C357.402,365.767,333.829,341.338,300.592,351.35z"/>
	<path class="st0" d="M402.794,449.23c-10.213-29.168-17.71-64.561-30.493-99.82c1.539-11.994,12.61-21.759,12.61-21.759
		s-16.88,0.22-25.742-9.417c-11.445-23.633-26.652-46.309-48.257-65.852c-3.815,4.156-7.811,8.239-12.148,12.161
		c5.964,5.355,11.505,10.93,16.498,16.78c-0.374,10.474-7.041,20.092-7.041,20.092s12.262-3.206,22.449,0.756
		c3.908,6.091,7.509,12.336,10.776,18.728c16.638,32.488,25.714,68.382,35.178,101.707c0.281,1.011,0.588,1.994,0.87,2.998
		c-2.49,11.532-13.587,20.34-13.587,20.34s13.614,0.549,22.435,7.965c1.888,5.488,3.855,10.89,6.024,16.083
		c6.144,14.678,13.574,28.071,23.667,39.194c3.172,3.507,8.594,3.775,12.101,0.59c3.494-3.173,3.761-8.594,0.589-12.095
		C417.693,485.539,409.634,468.874,402.794,449.23z"/>
</g>
</svg>
